# xmcd CD database file
#
# Track frame offsets:
#	150
#	21962
#	40485
#	61065
#	77031
#	92030
#	109089
#	131726
#	150087
#	170309
#	187729
#
# Disc length: 2721 seconds
#
# Revision: 0
# Processed by: cddbd v1.4PL0 Copyright (c) Steve Scherf et al.
# Submitted via: CDex 1.40Release
#
DISCID=7c0a9f0b
DTITLE=Seth Walker - Restless
DYEAR=2002
DGENRE=Blues
TTITLE0=Restless
TTITLE1=Real Thing
TTITLE2=Leave Your Blues on Dallas Time
TTITLE3=Love's Not the Problem
TTITLE4=You Are Everywhere
TTITLE5=Run Away
TTITLE6=Round And Round
TTITLE7=Father James
TTITLE8=She's My Momma
TTITLE9=All Coming Clear
TTITLE10=Going With the Grain
EXTD=YEAR: 2002 ID3G: 0
EXTT0=
EXTT1=
EXTT2=
EXTT3=
EXTT4=
EXTT5=
EXTT6=
EXTT7=
EXTT8=
EXTT9=
EXTT10=
PLAYORDER=
